<svg width="12" height="10" viewBox="0 0 12 10" fill="none" xmlns="http://www.w3.org/2000/svg">
<path d="M10.9453 0.826172H1.05469C0.473859 0.826172 0 1.29952 0 1.88086V8.91211C0 9.49148 0.47175 9.9668 1.05469 9.9668H10.9453C11.5247 9.9668 12 9.49505 12 8.91211V1.88086C12 1.30148 11.5282 0.826172 10.9453 0.826172ZM10.7997 1.5293L6.02236 6.30663L1.20373 1.5293H10.7997ZM0.703125 8.76652V2.0231L4.08935 5.38029L0.703125 8.76652ZM1.2003 9.26367L4.58866 5.87531L5.77594 7.05239C5.91337 7.18866 6.13516 7.18821 6.27204 7.05131L7.42969 5.89366L10.7997 9.26367H1.2003ZM11.2969 8.76649L7.92687 5.39648L11.2969 2.02645V8.76649Z" fill="#F6762C"/>
</svg>
