<svg width="11" height="12" viewBox="0 0 11 12" fill="none" xmlns="http://www.w3.org/2000/svg">
<path d="M5 0.826172C1.69156 0.826172 -1 3.51773 -1 6.82617C-1 10.1346 1.69156 12.8262 5 12.8262C8.30844 12.8262 11 10.1346 11 6.82617C11 3.51773 8.30844 0.826172 5 0.826172ZM4.64844 3.77124C4.11359 3.74826 3.58414 3.6731 3.07858 3.55087C3.15933 3.35953 3.24695 3.17578 3.34143 3.00165C3.72906 2.28735 4.20496 1.7861 4.64844 1.60455V3.77124ZM4.64844 4.47491V6.47461H2.45255C2.48349 5.69412 2.61652 4.91931 2.83652 4.21454C3.41953 4.36139 4.03156 4.45029 4.64844 4.47491ZM4.64844 7.17773V9.17743C4.03156 9.20206 3.41953 9.29095 2.83652 9.43781C2.61652 8.73303 2.48349 7.95822 2.45255 7.17773H4.64844ZM4.64844 9.8811V12.0478C4.20496 11.8662 3.72906 11.365 3.34143 10.6507C3.24695 10.4766 3.15933 10.2928 3.07858 10.1015C3.58414 9.97925 4.11349 9.90408 4.64844 9.8811ZM5.35156 9.8811C5.88641 9.90408 6.41586 9.97925 6.92142 10.1015C6.84067 10.2928 6.75305 10.4766 6.65857 10.6507C6.27094 11.365 5.79504 11.8662 5.35156 12.0478V9.8811ZM5.35156 9.17743V7.17773H7.54745C7.51651 7.95822 7.38348 8.73303 7.16348 9.43781C6.58047 9.29095 5.96844 9.20206 5.35156 9.17743ZM5.35156 6.47461V4.47491C5.96844 4.45029 6.58047 4.36139 7.16348 4.21454C7.38348 4.91931 7.51651 5.69412 7.54745 6.47461H5.35156ZM5.35156 3.77124V1.60455C5.79504 1.7861 6.27094 2.28735 6.65857 3.00165C6.75305 3.17578 6.84067 3.35953 6.92142 3.55087C6.41586 3.6731 5.88641 3.74826 5.35156 3.77124ZM7.27655 2.66629C7.10049 2.34183 6.90924 2.05582 6.70764 1.81183C7.41058 2.05188 8.04733 2.43594 8.58282 2.9285C8.2774 3.0921 7.94827 3.23419 7.60202 3.35294C7.50378 3.11435 7.3952 2.88483 7.27655 2.66629ZM2.72345 2.66629C2.6048 2.88483 2.49622 3.11435 2.39798 3.35294C2.05173 3.23419 1.7226 3.09201 1.41718 2.9285C1.95267 2.43594 2.58942 2.05188 3.29236 1.81183C3.09076 2.05582 2.8996 2.34174 2.72345 2.66629ZM2.16013 4.01376C1.92017 4.78143 1.77908 5.61832 1.74869 6.47461H-0.284882C-0.209625 5.33194 0.229187 4.28696 0.917297 3.45511C1.29916 3.6741 1.71738 3.86142 2.16013 4.01376ZM1.74869 7.17773C1.77908 8.03412 1.92017 8.87091 2.16013 9.63858C1.71738 9.79092 1.29916 9.97824 0.917297 10.1972C0.229187 9.36539 -0.209625 8.3204 -0.284882 7.17773H1.74869ZM2.39798 10.2994C2.49622 10.538 2.6048 10.7675 2.72345 10.9861C2.8996 11.3105 3.09076 11.5965 3.29236 11.8405C2.58942 11.6005 1.95267 11.2164 1.41727 10.7238C1.7225 10.5603 2.05173 10.4182 2.39798 10.2994ZM7.27655 10.9861C7.3952 10.7675 7.50378 10.538 7.60202 10.2994C7.94827 10.4182 8.2774 10.5603 8.58282 10.7238C8.04733 11.2164 7.41058 11.6005 6.70764 11.8405C6.90924 11.5965 7.1004 11.3106 7.27655 10.9861ZM7.83987 9.63858C8.07983 8.87091 8.22092 8.03403 8.25131 7.17773H10.2849C10.2096 8.3204 9.77081 9.36539 9.0827 10.1972C8.70084 9.97824 8.28262 9.79092 7.83987 9.63858ZM8.25131 6.47461C8.22092 5.61823 8.07983 4.78143 7.83987 4.01376C8.28262 3.86142 8.70084 3.6741 9.0827 3.45511C9.77081 4.28696 10.2096 5.33194 10.2849 6.47461H8.25131Z" fill="#F6762C"/>
</svg>
